<svg xmlns="http://www.w3.org/2000/svg" viewBox="0 0 1000 1000" enable-background="new 0 0 1000 1000">
<g>
<path d="M820.9,496.2l-81.9,138.7L590.1,346L419.8,674.3L261.6,402.4l-48.3,100.9H72.6c7.6,9,15.9,17.5,24.6,25.4c1.2,1.1,2.4,2.1,3.6,3.1l399.8,399.8L911,521.4c0,0,2.9-3.4,3.3-3.7c7-6.9,13.5-14,19.5-21.5L820.9,496.2z"/>
<path d="M188.7,464.2l69.5-145.4l159.6,274.3l172.4-332.2L741.3,554l57.3-97h161.3c19.7-36.7,30.2-78.7,30.2-124.6c0-145.9-118.3-264.2-264.2-264.2c-95.7,0-179.4,50.8-225.8,127c-46.4-76.1-130.1-127-225.8-127C128.3,68.3,10,186.6,10,332.5c0,48,12.8,92.9,35.1,131.7H188.7z"/>
</g>
</svg>