<svg
   xmlns:svg="http://www.w3.org/2000/svg"
   xmlns="http://www.w3.org/2000/svg"
   version="1.0"
   width="500.00003"
   height="500.00003"
   id="svg1895">
  <defs
     id="defs1897" />
  <g
     transform="translate(-122.047,-276.181)"
     id="layer1"
     style="opacity:1">
    <path
       d="M 239.31084,251.3965 A 18.991734,18.991734 0 1 1 201.32737,251.3965 A 18.991734,18.991734 0 1 1 239.31084,251.3965 z"
       transform="matrix(13.032,0,0,13.032,-2499.1516,-2750.0182)"
       id="path26760"
       style="fill:#b34843;fill-opacity:1;fill-rule:nonzero;stroke:#610000;stroke-width:0.38367096;stroke-linejoin:miter;stroke-miterlimit:4;stroke-dasharray:none;stroke-opacity:1" />
    <path
       d="M 240.92639,257.40594 A 18.916666,18.916666 0 1 1 203.09305,257.40594 A 18.916666,18.916666 0 1 1 240.92639,257.40594 z"
       transform="matrix(11.2203,0,0,11.2203,-2118.9686,-2362.0036)"
       id="path12507"
       style="fill:#e3a86e;fill-opacity:1;fill-rule:nonzero;stroke:#610000;stroke-width:0.44562089;stroke-linejoin:miter;stroke-miterlimit:4;stroke-dasharray:none;stroke-opacity:1" />
    <path
       d="M 223.09928,436.01424 C 189.83928,431.70285 166.6101,421.98465 150.09928,405.47383 C 136.52495,391.8995 128.56839,375.35015 124.58868,352.41272 C 122.11007,338.12692 124.33672,316.69994 130.01248,300.22016 C 138.87317,274.49275 158.45923,256.26121 184.59928,249.40836 C 199.7105,245.44683 225.90931,245.74003 244.84314,250.0826 C 289.20837,260.25801 322.93892,255.83772 346.57505,236.75096 C 359.15509,226.59231 369.56895,209.34052 374.81164,189.97383 C 377.21417,181.09887 377.52249,178.17377 377.55237,163.97383 C 377.58924,146.46328 376.11726,137.4423 370.97005,123.63354 C 359.52457,92.928055 331.21317,72.169195 290.35468,64.523755 C 253.9534,57.712325 223.35932,59.786255 187.92254,71.467455 C 157.0255,81.652205 131.94644,96.908005 108.26066,119.92648 C 75.89843,151.37696 55.45225,190.7094 47.41596,236.97383 C 44.79565,252.05874 45.05588,286.94719 47.9045,302.47383 C 51.2344,320.62365 51.25469,321.52454 48.12151,312.10752 C 41.89736,293.4003 38.98817,273.60924 38.98817,249.97383 C 38.98817,226.43788 41.6602,208.14145 48.16481,187.13786 C 51.39798,176.69792 58.46719,159.44493 62.19063,152.90681 C 75.68258,129.21582 85.23695,116.28104 100.57172,100.94627 C 164.00464,37.513355 257.85348,20.885825 339.79249,58.562675 C 379.92941,77.018285 418.41502,114.34302 438.4751,154.26873 C 445.48496,168.22042 451.84975,200.12699 452.77907,225.97383 C 454.98974,287.45939 429.90057,344.54423 382.79162,385.21461 C 353.78836,410.25389 321.16032,426.79506 285.57212,434.50118 C 272.71601,437.285 239.17014,438.09746 223.09928,436.01424 z M 259.59928,378.11775 C 270.34955,375.2531 278.40994,368.6508 283.31097,358.6954 C 286.24507,352.73543 286.59632,351.11124 286.59771,343.49804 C 286.59905,336.35522 286.16814,334.05413 283.93887,329.29868 C 280.21409,321.35307 274.06935,315.07672 266.24289,311.22376 C 260.19619,308.24698 258.84108,307.97383 250.12031,307.97383 C 241.92275,307.97383 239.81805,308.34014 234.97927,310.609 C 221.33554,317.00637 213.11411,329.3701 213.12528,343.47383 C 213.14393,367.01391 236.35019,384.31295 259.59928,378.11774 L 259.59928,378.11775 z"
       transform="translate(122.047,276.181)"
       id="path3182"
       style="opacity:1;fill:#465274;fill-opacity:1;fill-rule:nonzero;stroke:none;stroke-width:5;stroke-miterlimit:4;stroke-dasharray:none;stroke-dashoffset:0;stroke-opacity:1" />
    <path
       d="M 291.93408,160.58878 A 36.36549,35.355339 0 1 1 219.2031,160.58878 A 36.36549,35.355339 0 1 1 291.93408,160.58878 z"
       transform="translate(116.47843,272.14043)"
       id="path3164"
       style="opacity:1;fill:#b34843;fill-opacity:1;fill-rule:nonzero;stroke:#610000;stroke-width:5;stroke-miterlimit:4;stroke-dasharray:none;stroke-dashoffset:0;stroke-opacity:1" />
    <path
       d="M 291.93408,160.58878 A 36.36549,35.355339 0 1 1 219.2031,160.58878 A 36.36549,35.355339 0 1 1 291.93408,160.58878 z"
       transform="translate(116.47843,459.01861)"
       id="path3166"
       style="opacity:1;fill:#b34843;fill-opacity:1;fill-rule:nonzero;stroke:#610000;stroke-width:5;stroke-miterlimit:4;stroke-dasharray:none;stroke-dashoffset:0;stroke-opacity:1" />
    <path
       d="M 180.90308,618.94684 C 132.86558,488.58177 223.55658,343.20132 370.21999,337.43032 C 451.66999,338.46282 499.9027,370.90042 499.51952,443.66962 C 498.38496,467.72742 484.43417,549.62214 374.85234,527.04314 C 289.24685,505.46697 243.344,548.24214 244.54268,620.98744 C 251.95188,690.82114 303.27838,714.98094 377.8828,714.93164 C 477.86893,713.76684 617.32172,602.09899 562.19021,432.26567"
       id="path3172"
       style="opacity:1;fill:none;fill-rule:evenodd;stroke:#262d48;stroke-width:5;stroke-linecap:butt;stroke-linejoin:miter;stroke-miterlimit:4;stroke-dasharray:none;stroke-opacity:1" />
    <path
       d="M 240.92639,257.40594 A 18.916666,18.916666 0 1 1 203.09305,257.40594 A 18.916666,18.916666 0 1 1 240.92639,257.40594 z"
       transform="matrix(11.2203,0,0,11.2203,-2118.9686,-2362.0036)"
       id="path2398"
       style="fill:none;fill-opacity:1;fill-rule:nonzero;stroke:#610000;stroke-width:0.44562089;stroke-linejoin:miter;stroke-miterlimit:4;stroke-dasharray:none;stroke-opacity:1" />
  </g>
</svg>
